<?xml version="1.0" encoding="UTF-8"?>
<svg id="Layer_1" xmlns="http://www.w3.org/2000/svg" xmlns:xlink="http://www.w3.org/1999/xlink" viewBox="0 0 425.2 425.2">
  <defs>
    <style>
      .cls-1 {
        fill: #fff;
      }

      .cls-2 {
        fill: none;
      }

      .cls-3 {
        clip-path: url(#clippath-1);
      }

      .cls-4 {
        fill: #009f4c;
      }

      .cls-5 {
        clip-path: url(#clippath);
      }

      .cls-6 {
        fill: #00904c;
      }
    </style>
    <clipPath id="clippath">
      <rect class="cls-2" width="425.2" height="425.2"/>
    </clipPath>
    <clipPath id="clippath-1">
      <rect class="cls-2" width="425.2" height="425.2"/>
    </clipPath>
  </defs>
  <rect class="cls-4" width="425.2" height="425.2"/>
  <g class="cls-5">
    <path class="cls-1" d="M156.75,173.71l1.54,4.22c.29.84.85,1.39,1.67,1.64.82.26,1.78.13,2.88-.38l-1.59-9.81h-31.4l-1.43,9.92c.99.51,1.89.68,2.71.5.82-.18,1.41-.83,1.78-1.92l1.37-4.17h6.68v28.33l-2.96.66c-.8.18-1.31.56-1.51,1.12-.2.57-.19,1.1.03,1.61.44,0,.99,0,1.67-.02.67-.02,1.38-.04,2.11-.06.73-.02,1.46-.03,2.19-.03h2.08c1.54,0,2.93,0,4.17.03,1.24.02,2.41.05,3.51.08,1.1.04,1.89-.17,2.39-.63.49-.46.76-.88.82-1.29.05-.4.08-.64.08-.71l-4.99-.71v-28.39h6.19Z"/>
    <path class="cls-1" d="M177.11,164.31c.64-.71.96-1.63.96-2.77,0-.95-.29-1.73-.88-2.33-.58-.6-1.52-.9-2.8-.9-1.53,0-2.58.34-3.15,1.01-.57.68-.85,1.54-.85,2.6s.29,1.85.88,2.49c.58.64,1.52.96,2.79.96,1.39,0,2.4-.35,3.04-1.07"/>
    <path class="cls-1" d="M177.85,177.88l3.94,11.84h-7.89l3.95-11.84ZM183.33,194.04l2.63,8-2.68.77c-.73.18-1.16.56-1.29,1.12-.13.57-.06,1.07.19,1.5,1.02-.07,2.17-.11,3.45-.11h3.95c1.28,0,2.43,0,3.45.03,1.02.02,2.01.05,2.96.08,1.13.04,1.95-.18,2.44-.66.49-.47.77-.91.85-1.31.07-.4.11-.64.11-.71l-3.57-.72-9.7-28.17c-.84-2.41-2.11-3.95-3.81-4.6-1.7-.66-3.79-.68-6.28-.05l-11.89,32.77-2.19.6c-.81.26-1.27.67-1.4,1.23-.13.57-.07,1.1.19,1.61.95-.07,1.86-.11,2.74-.11h2.41c.84,0,1.67,0,2.49.03.82.02,1.74.05,2.77.08,1.13.04,1.94-.18,2.41-.66.48-.47.73-.91.77-1.31.04-.4.05-.64.05-.71l-4.6-.66,2.69-8.06h10.85Z"/>
    <path class="cls-1" d="M185.82,165.38c1.4,0,2.41-.35,3.04-1.07.62-.71.94-1.63.94-2.77,0-.95-.29-1.73-.86-2.33-.57-.6-1.5-.9-2.79-.9-1.54,0-2.6.34-3.17,1.02-.57.67-.86,1.54-.86,2.6s.29,1.85.88,2.49c.59.64,1.53.96,2.82.96"/>
    <path class="cls-1" d="M242.05,203.69c.13-.33.19-.64.19-.93l-3.94-.71v-29.39l2.14-.44c.66-.15,1.15-.46,1.48-.96.33-.49.38-1.1.16-1.84h-14.19c-.91,0-1.59.29-2.03.88-.44.58-.57,1.24-.39,1.97l3.23.33v12.17h-13.76v-12.11l2.14-.44c.65-.15,1.15-.47,1.48-.96.32-.49.38-1.1.16-1.84h-14.19c-.91,0-1.59.29-2.03.88-.44.58-.57,1.24-.38,1.97l3.23.33v29.49l-2.25.71c-.62.22-1.02.6-1.21,1.12-.18.53-.17,1.03.06,1.5.91-.07,1.96-.11,3.12-.11h3.46c1.28,0,2.49,0,3.65.03,1.15.02,2.25.05,3.31.08,1.17.04,2.04-.24,2.6-.85.56-.6.83-1.21.79-1.83l-3.95-.66v-12.66h13.76v12.6l-2.41.77c-.62.18-1.04.52-1.26,1.01-.22.5-.18,1.03.11,1.62.91-.07,1.99-.11,3.24-.11h3.56c1.35,0,2.58,0,3.7.03,1.11.02,2.2.05,3.26.08.58,0,1.09-.08,1.51-.24.42-.16.77-.37,1.04-.63.27-.26.47-.55.6-.88"/>
    <path class="cls-1" d="M271.9,173.71l1.53,4.22c.29.84.85,1.39,1.67,1.64.82.26,1.78.13,2.88-.38l-1.59-9.81h-31.4l-1.43,9.92c.99.51,1.89.68,2.72.5.82-.18,1.41-.83,1.78-1.92l1.37-4.17h6.68v28.33l-2.96.66c-.8.18-1.3.56-1.51,1.12-.2.57-.19,1.1.03,1.61.44,0,1,0,1.67-.02.68-.02,1.38-.04,2.11-.06.72-.02,1.46-.03,2.19-.03h2.08c1.53,0,2.92,0,4.17.03,1.24.02,2.41.05,3.51.08,1.1.04,1.89-.17,2.39-.63.49-.46.77-.88.82-1.29.06-.4.09-.64.09-.71l-4.99-.71v-28.39h6.2Z"/>
    <path class="cls-1" d="M280.77,202.76c-.69.22-1.13.59-1.31,1.12-.18.53-.15,1.05.11,1.56.91-.07,2.03-.11,3.34-.11h3.78c1.35,0,2.55,0,3.59.03,1.05.02,2.1.05,3.16.08,1.13.04,1.98-.19,2.55-.68.57-.49.83-1.16.8-2l-4.11-.71v-29.43l2.25-.44c.66-.11,1.15-.42,1.49-.93.33-.51.38-1.13.16-1.86h-14.3c-.95,0-1.66.28-2.14.85-.47.57-.62,1.23-.44,2l3.4.33v29.49l-2.3.71Z"/>
    <path class="cls-1" d="M95.68,238.83c-2.55,2.25-6.46,3.08-11.72,2.48v-24.24c2.73,0,5.08.3,7.06.89,1.99.59,3.59,1.4,4.84,2.44,1.24,1.03,2.16,2.24,2.75,3.6.59,1.36.89,2.84.89,4.44,0,4.68-1.27,8.14-3.81,10.39M118.84,262.58c-.83-.8-1.65-1.67-2.44-2.62-.81-.95-1.56-1.92-2.26-2.93l-9.94-13.76c3.02-1.6,5.55-3.73,7.59-6.39,2.04-2.67,3.06-5.89,3.06-9.68,0-2.9-.55-5.41-1.64-7.55-1.1-2.13-2.81-3.89-5.15-5.28-2.34-1.39-5.37-2.43-9.1-3.11-3.73-.68-8.25-1.02-13.58-1.02-2.25,0-4.44.04-6.57.13-2.13.09-4.13.21-6,.35-1.86.15-3.5.33-4.92.53-1.42.21-2.52.46-3.28.75-2.19.77-2.96,2.28-2.31,4.53l6.12.44v47.76l-3.55.98c-1.19.3-1.94.87-2.27,1.73-.32.86-.25,1.76.22,2.71.77-.06,1.67-.1,2.71-.13,1.04-.03,2.11-.04,3.24-.04h6.57c2.25,0,4.13.01,5.64.04,1.51.03,3.09.08,4.75.13,1.83.06,3.15-.28,3.95-1.02.8-.74,1.24-1.44,1.33-2.09.09-.65.13-1.04.13-1.15l-7.19-1.33v-18.02c1.01.12,1.94.19,2.79.22.86.03,1.97.04,3.33.04l7.99,14.82c1.13,2.01,2.21,3.7,3.24,5.06,1.04,1.36,2.12,2.46,3.24,3.29,1.13.82,2.34,1.41,3.64,1.77,1.3.35,2.78.53,4.44.53,2.84,0,5.08-.5,6.71-1.51,1.63-1.01,2.94-2.55,3.95-4.62-.59-.36-1.28-.85-2.04-1.47-.77-.62-1.57-1.33-2.4-2.13"/>
    <path class="cls-1" d="M127.37,265.82c-1.01.3-1.7.86-2.08,1.69-.39.83-.28,1.72.31,2.66h42.52l4.35-15.63c-1.42-.83-2.72-1.02-3.91-.57-1.18.44-2.1,1.32-2.75,2.62l-3.47,6.84-15.62-.44v-18.74l9.41.27-.26,5.59c1.47.35,2.84.18,4.08-.53,1.24-.71,1.93-2.01,2.04-3.9l.62-13.5c-2.07-.42-3.51-.31-4.31.31-.8.62-1.4,1.88-1.81,3.77l-9.77.27v-18.64l13.58.26,1.69,8.79c1.89.18,3.39-.16,4.49-1.02,1.09-.85,1.49-2.44,1.2-4.75l-1.15-9.41h-36.4c-2.07,0-3.42.54-4.04,1.6-.62,1.06-.76,2.31-.4,3.73l5.51.36v47.23l-3.82,1.15Z"/>
    <path class="cls-1" d="M215.35,265.91c-1.01.3-1.68.84-2.04,1.64-.36.8-.3,1.67.18,2.62,1.48-.12,3.23-.18,5.24-.18h5.77c2.19,0,4.19.01,5.99.04,1.8.03,3.56.07,5.28.13.95,0,1.76-.13,2.44-.4.68-.27,1.24-.6,1.69-1.02.45-.42.77-.89.98-1.42.2-.53.31-1.03.31-1.51l-6.39-1.15v-47.6l3.47-.71c1.06-.24,1.86-.75,2.4-1.55.53-.8.62-1.79.26-2.97h-22.99c-1.48,0-2.58.48-3.29,1.42-.71.94-.92,2.01-.62,3.19l5.24.53v19.71h-22.29v-19.62l3.46-.71c1.07-.24,1.87-.76,2.4-1.55.54-.8.62-1.79.27-2.98h-22.99c-1.48,0-2.58.48-3.29,1.42-.71.94-.92,2.01-.62,3.19l5.24.53v47.77l-3.64,1.15c-1.01.35-1.66.96-1.95,1.82-.3.85-.27,1.67.09,2.44,1.48-.12,3.16-.18,5.06-.18h5.59c2.07,0,4.04.01,5.9.04,1.86.03,3.65.07,5.37.13,1.89.06,3.3-.4,4.22-1.38.91-.97,1.34-1.97,1.29-2.97l-6.4-1.07v-20.51h22.29v20.42l-3.91,1.24Z"/>
    <path class="cls-1" d="M289.3,211.84c-1.48,0-2.57.46-3.28,1.38-.71.92-.92,2-.63,3.24l5.68.45v28.67c0,5.39-.9,9.47-2.71,12.25-1.8,2.78-4.89,4.17-9.28,4.17-2.13,0-3.98-.27-5.55-.8-1.57-.54-2.87-1.42-3.9-2.67-1.04-1.24-1.8-2.91-2.31-5.02-.5-2.1-.76-4.72-.76-7.86v-28.59l3.73-.71c1.01-.24,1.79-.76,2.35-1.56.57-.8.64-1.79.23-2.98h-23.36c-1.42,0-2.49.46-3.19,1.38-.71.92-.92,1.99-.62,3.23l5.41.44v32.09c0,4.08.42,7.58,1.24,10.51.83,2.93,2.16,5.31,3.99,7.14,1.83,1.83,4.23,3.18,7.19,4.04,2.96.85,6.58,1.28,10.83,1.28,8.53,0,14.83-2.33,18.91-7,4.08-4.67,6.12-11.43,6.12-20.3v-27.48l4.08-.8c1.07-.18,1.87-.68,2.4-1.51.53-.82.59-1.83.17-3.02h-16.78Z"/>
    <path class="cls-1" d="M360.56,211.75h-50.87l-2.31,16.07c1.6.83,3.07,1.1,4.4.8,1.33-.3,2.29-1.33,2.89-3.11l2.22-6.75h10.83v45.9l-4.8,1.06c-1.3.3-2.12.9-2.44,1.82-.32.92-.31,1.79.04,2.62.71,0,1.61-.01,2.71-.04,1.1-.03,2.24-.06,3.42-.09,1.18-.03,2.36-.04,3.55-.04h3.37c2.48,0,4.73.01,6.74.04,2.01.03,3.91.08,5.68.13,1.78.06,3.06-.28,3.86-1.02.79-.74,1.24-1.44,1.33-2.09.09-.65.13-1.03.13-1.15l-8.08-1.16v-45.99h10.04l2.48,6.84c.48,1.36,1.37,2.25,2.71,2.66,1.33.42,2.88.21,4.66-.62l-2.57-15.9Z"/>
    <path class="cls-1" d="M298.51,282.6H126.69c-1.4,0-2.53,1.14-2.53,2.53s1.13,2.53,2.53,2.53h171.81c1.4,0,2.53-1.13,2.53-2.53s-1.13-2.53-2.53-2.53"/>
  </g>
  <polygon class="cls-1" points="217.22 308.21 212.6 293.97 207.97 308.21 193 308.21 205.11 317.01 200.49 331.25 212.6 322.45 224.71 331.25 220.09 317.01 232.19 308.21 217.22 308.21"/>
  <polygon class="cls-1" points="264.56 308.18 260.43 295.47 256.29 308.18 242.93 308.18 253.74 316.04 249.61 328.76 260.43 320.9 271.24 328.76 267.11 316.04 277.93 308.18 264.56 308.18"/>
  <polygon class="cls-1" points="168.9 308.18 164.77 295.47 160.64 308.18 147.27 308.18 158.08 316.04 153.95 328.76 164.77 320.9 175.59 328.76 171.45 316.04 182.27 308.18 168.9 308.18"/>
  <g class="cls-3">
    <path class="cls-6" d="M113.39,164.57c.95,1.55,2.6,2.4,4.29,2.4.85,0,1.72-.22,2.51-.67,28.06-16.19,60.01-24.75,92.41-24.75s64.36,8.56,92.41,24.75c.79.46,1.66.67,2.51.67,1.69,0,3.35-.86,4.29-2.4l19.62-32.02c.71-1.15.92-2.54.59-3.86-.33-1.31-1.17-2.44-2.35-3.12-35.5-20.69-75.98-31.63-117.08-31.63s-81.58,10.94-117.08,31.63c-1.17.68-2.01,1.8-2.35,3.12-.33,1.31-.12,2.7.59,3.86l19.62,32.02Z"/>
    <path class="cls-1" d="M327.14,129.92c-8.78-4.79-17.8-9.14-27.09-12.79-9.25-3.73-18.74-6.86-28.39-9.35-19.28-5-39.17-7.65-59.07-7.54-19.9-.1-39.79,2.54-59.07,7.54-9.65,2.48-19.13,5.61-28.39,9.34-9.29,3.65-18.3,8-27.09,12.79,8.5-5.29,17.43-9.87,26.61-13.93,9.21-3.98,18.69-7.35,28.36-10.08,19.35-5.44,39.47-8.1,59.58-8.19,20.11.1,40.23,2.75,59.58,8.2,9.67,2.73,19.15,6.09,28.36,10.08,9.17,4.06,18.11,8.65,26.61,13.93"/>
    <path class="cls-1" d="M117.67,161.94c7.03-4.39,14.44-8.18,22.04-11.55,7.63-3.3,15.49-6.08,23.5-8.35,16.04-4.51,32.72-6.69,49.39-6.79,16.67.1,33.35,2.28,49.39,6.79,8.01,2.27,15.87,5.05,23.5,8.35,7.6,3.37,15,7.16,22.04,11.55-7.32-3.89-14.8-7.44-22.51-10.41-7.68-3.04-15.54-5.59-23.53-7.61-15.97-4.07-32.42-6.24-48.88-6.14-16.46-.11-32.92,2.07-48.88,6.13-7.99,2.02-15.85,4.57-23.53,7.61-7.71,2.97-15.19,6.52-22.51,10.41"/>
    <path class="cls-1" d="M131.66,142.44l1.61-.76c.39-.18.69-.42.52-.78-.07-.14-.23-.3-.48-.45l-5.76-3.34-1.5,3.36,1.38,2.91c.3.62.65.75,1.39.4l1.42-.67.84,1.78-8.47,4.01-.84-1.78,1.27-.6c1.11-.52,1.18-1.18.8-1.97l-4.84-10.22c-.3-.62-.65-.75-1.4-.4l-1.71.81-.84-1.78,8.47-4.01.84,1.78-1.42.67c-.75.35-.87.71-.57,1.33l2.33,4.93,2.94-7.16c.21-.48.29-.81.19-1.03-.09-.19-.29-.24-.58-.11l-1.51.72-.84-1.78,8.44-4,.84,1.78-.89.42c-1.45.68-1.94,1.45-2.51,2.78l-1.99,4.56,8.46,4.62c1.07.58,1.81.47,2.34.22l1.25-.59.84,1.78-9.19,4.35-.84-1.78Z"/>
    <path class="cls-1" d="M147.36,137.97l-.63-1.87,1.26-.42c1.03-.35,1.35-.74,1.13-1.39l-3.67-10.95c-.21-.63-.68-1.03-1.67-.7l-1.41.47-.62-1.87,8.93-2.99.62,1.87-1.11.37c-.81.27-1.51.79-1.18,1.74l3.53,10.55c.27.81.8,1.11,1.65.82l1.47-.49.62,1.87-8.93,2.99Z"/>
    <path class="cls-1" d="M164.67,117.91h-.05s2.33,11.02,2.33,11.02c.13.62.61.96,1.29.82l1.95-.41.41,1.93-8.61,1.82-.41-1.93,1.82-.39c.81-.17.98-.64.85-1.27l-2.42-11.42c-.14-.68-.46-.88-1.26-.71l-1.82.39-.41-1.93,7.68-1.62,10.2,10.81h.05s-1.96-9.28-1.96-9.28c-.17-.78-.68-1.14-1.61-.94l-1.59.34-.41-1.93,8.48-1.8.41,1.92-1.54.33c-.93.2-1.22.67-1.11,1.19l3.05,14.42-3.85.82-11.47-12.17Z"/>
    <path class="cls-1" d="M193.43,113.24h-.05s.76,11.23.76,11.23c.04.64.47,1.04,1.16.99l1.99-.13.13,1.96-8.79.6-.13-1.97,1.86-.13c.82-.06,1.06-.5,1.01-1.14l-.79-11.65c-.05-.69-.33-.94-1.15-.88l-1.86.13-.13-1.96,7.83-.53,8.58,12.14h.05s-.64-9.45-.64-9.45c-.05-.8-.51-1.22-1.46-1.15l-1.62.11-.13-1.96,8.65-.59.13,1.96-1.57.11c-.96.06-1.3.49-1.26,1.02l.99,14.71-3.93.27-9.65-13.67Z"/>
    <path class="cls-1" d="M215.82,108.88l9.46.58-.12,1.97-1.22-.07c-1.35-.08-1.64.25-1.68.94l-.6,9.83c-.11,1.86,1.21,2.9,3.47,3.04,2.23.14,3.83-.78,3.99-3.38l.53-8.61c.06-1.06-.28-1.48-1.5-1.56l-1.25-.08.12-1.97,8.45.52-.12,1.96-1.46-.09c-1.12-.07-1.4.26-1.47,1.38l-.54,8.82c-.29,4.68-3.84,5.68-7.27,5.48-3.45-.21-6.91-1.65-6.66-5.74l.6-9.78c.05-.82-.54-1.13-1.71-1.2l-1.12-.07.12-1.97Z"/>
    <path class="cls-1" d="M255.66,113.43l1.52.28-1.21,6.6-1.88-.34c-.11-2.97-1.39-5.31-4.5-5.88-2.43-.44-3.54,0-3.86,1.73-.72,3.93,11.5,3.13,10.16,10.43-.76,4.16-4.25,4.93-7.92,4.26-1.96-.36-3.77-1.55-5.07-3.06l-.86,1.44-1.78-.32,1.29-7.09,1.94.35c-.27,3.58,1.53,5.85,5.25,6.53,2.3.42,3.6-.45,3.83-1.71.82-4.48-11.47-3.23-10.11-10.72.67-3.69,4.28-4.65,7.45-4.08,1.99.36,3.5,1.58,4.64,2.74l1.1-1.15Z"/>
    <path class="cls-1" d="M260.46,132.49l.58-1.88,1.42.44c.86.27,1.43.16,1.9-1.36l3.06-9.89c.34-1.09.14-1.52-1.19-1.93l-1.15-.35.58-1.88,16.78,5.19-2.08,6.71-1.88-.58c.69-3.58.81-5.04-2.6-6.1l-4.47-1.38-1.64,5.29,1.35.42c1.53.47,2.45-.08,3.09-2.14l.1-.33,1.88.58-2.63,8.49-1.88-.58.19-.61c.64-2.06.2-3.06-1.33-3.53l-1.35-.42-1.83,5.92,5.09,1.57c2.34.73,3.7-.44,5.1-4.16l1.88.58-2.2,7.12-16.78-5.19Z"/>
    <path class="cls-1" d="M294.65,129.43l-.05-.02-4.82,10.17c-.27.58-.09,1.13.53,1.43l1.8.85-.84,1.78-7.96-3.77.84-1.78,1.68.8c.74.35,1.17.08,1.44-.49l5-10.56c.3-.63.17-.98-.58-1.33l-1.68-.8.84-1.78,7.1,3.36,1.57,14.79.05.02,4.06-8.56c.34-.72.15-1.31-.72-1.72l-1.46-.69.84-1.78,7.84,3.71-.84,1.78-1.42-.67c-.87-.41-1.37-.21-1.6.27l-6.31,13.33-3.56-1.68-1.75-16.64Z"/>
  </g>
</svg>